<?xml version="1.0" encoding="UTF-8"?>
<svg id="Layer_1" data-name="Layer 1" xmlns="http://www.w3.org/2000/svg" viewBox="0 0 1024 1024">
  <defs>
    <style>
      .cls-1 {
        fill: #fff;
      }

      .cls-2 {
        fill: #16a34a;
      }
    </style>
  </defs>
  <rect class="cls-2" width="1024" height="1024"/>
  <g>
    <path class="cls-1" d="M272.22,209.61l208.8,208.8c18.4,18.4,48.24,18.4,66.65,0l209.63-209.63-242.54,82.8-242.54-81.96Z"/>
    <path class="cls-1" d="M206.09,752.26l208.8-208.8c18.4-18.4,18.4-48.24,0-66.65l-209.63-209.63,82.8,242.54-81.96,242.54Z"/>
    <path class="cls-1" d="M757.3,814.39l-208.8-208.8c-18.4-18.4-48.24-18.4-66.65,0l-209.63,209.63,242.54-82.8,242.54,81.96Z"/>
    <path class="cls-1" d="M817.91,267.19l-208.8,208.8c-18.4,18.4-18.4,48.24,0,66.65l209.63,209.63-82.8-242.54,81.96-242.54Z"/>
  </g>
</svg>